<svg preserveAspectRatio="none" overflow="visible" style="display: block;" width="32" height="32" viewBox="0 0 32 32" fill="none" xmlns="http://www.w3.org/2000/svg">
<g id="Imagery">
<path id="Path_838" fill-rule="evenodd" clip-rule="evenodd" d="M29.1262 17.5024C29.2174 16.6143 26.3576 13.8114 26.3576 12.5586C26.3576 11.8481 26.791 11.6586 26.8585 11.2146C26.8347 10.2632 26.6095 9.3277 26.1978 8.46972C25.1617 5.28237 22.8659 2.65815 19.8446 1.20764C16.8232 -0.242864 13.3397 -0.393174 10.2046 0.791686C-0.15077 4.32283 1.93452 17.4799 7.14005 22.1964C8.55274 23.4836 7.54977 28.1764 6.03524 31.9586L19.3297 32C19.6921 30.5256 20.4571 29.1809 21.5393 28.116C22.6553 27.1714 24.0887 26.6867 25.5489 26.7601C26.3695 26.7151 26.9841 26.6571 27.2008 26.1906C27.429 25.7233 27.4815 25.1895 27.3488 24.6867C27.1546 23.9916 26.6537 23.3427 27.4672 23.0123C27.5623 22.9715 27.6248 22.8789 27.6271 22.7755C27.6582 22.4517 27.4618 22.1493 27.1534 22.046C27.4547 22.0016 27.7009 21.7825 27.7798 21.4883C27.8188 21.3341 27.7852 21.1706 27.6886 21.0442C27.2355 20.5822 27.0695 19.9104 27.2552 19.2905C27.6543 18.4936 29.112 18.1063 29.1688 17.5024H29.1262ZM19.3864 13.3897L17.2443 12.5466C14.9562 14.3557 11.6794 14.18 9.59791 12.1365C7.51638 10.093 7.28026 6.82011 9.04689 4.499C10.8135 2.17789 14.0311 1.53362 16.5552 2.99558C19.0794 4.45754 20.1216 7.56905 18.9874 10.2564L19.9347 12.8533C20.1052 13.3269 19.866 13.5709 19.3876 13.3885L19.3864 13.3897Z" fill="#FCFCFC"/>
</g>
</svg>
